<svg width="456" height="236" viewBox="0 0 456 236" fill="none" xmlns="http://www.w3.org/2000/svg">
<rect x="0.5" y="0.5" width="455" height="235" rx="4.5" stroke="#9747FF" stroke-dasharray="10 5"/>
<path d="M220 118C220 101.626 216.058 85.4929 208.507 70.9639C200.957 56.4349 190.019 43.9371 176.62 34.527C163.22 25.1169 147.752 19.071 131.522 16.9003C115.293 14.7296 98.7795 16.4979 83.3777 22.0558C67.976 27.6136 54.1386 36.7976 43.0351 48.8316C31.9316 60.8656 23.8884 75.3958 19.5853 91.1942C15.2822 106.992 14.8457 123.595 18.3127 139.597C21.7796 155.6 29.0482 170.533 39.5039 183.133L41.8588 181.179C31.7167 168.957 24.6663 154.472 21.3033 138.949C17.9404 123.427 18.3638 107.323 22.5378 91.9983C26.7118 76.6739 34.5137 62.5796 45.284 50.9067C56.0544 39.2337 69.4767 30.3252 84.4164 24.9341C99.3561 19.543 115.374 17.8277 131.117 19.9333C146.859 22.0389 161.863 27.9034 174.861 37.0312C187.859 46.159 198.468 58.2818 205.792 72.375C213.116 86.4681 216.94 102.117 216.94 118H220Z" fill="#FF4F18"/>
<path d="M237.874 98.5376C234.75 114.611 235.541 131.2 240.18 146.902C244.82 162.605 253.172 176.96 264.53 188.754C275.888 200.548 289.918 209.435 305.435 214.662C320.952 219.89 337.5 221.305 353.679 218.788C369.858 216.271 385.194 209.896 398.39 200.202C411.585 190.507 422.253 177.779 429.492 163.092C436.73 148.405 440.327 132.191 439.977 115.821C439.627 99.4508 435.341 83.4055 427.482 69.0411L424.797 70.5099C432.421 84.4433 436.578 100.007 436.917 115.886C437.257 131.765 433.768 147.493 426.747 161.739C419.726 175.986 409.378 188.332 396.578 197.736C383.778 207.139 368.903 213.323 353.209 215.764C337.515 218.206 321.464 216.833 306.412 211.762C291.361 206.692 277.751 198.072 266.734 186.632C255.717 175.191 247.616 161.267 243.115 146.035C238.615 130.804 237.847 114.712 240.878 99.1215L237.874 98.5376Z" fill="#FF4F18"/>
</svg>
