<svg width="808" height="412" viewBox="0 0 808 412" fill="none" xmlns="http://www.w3.org/2000/svg">
<rect x="0.5" y="0.5" width="807" height="411" rx="4.5" stroke="#9747FF" stroke-dasharray="10 5"/>
<g opacity="0.5">
<mask id="mask0_604_123" style="mask-type:alpha" maskUnits="userSpaceOnUse" x="16" y="16" width="380" height="380">
<path d="M396 206C396 310.934 310.934 396 206 396C101.066 396 16 310.934 16 206C16 101.066 101.066 16 206 16C310.934 16 396 101.066 396 206ZM86.2978 206C86.2978 272.11 139.89 325.702 206 325.702C272.11 325.702 325.702 272.11 325.702 206C325.702 139.89 272.11 86.2978 206 86.2978C139.89 86.2978 86.2978 139.89 86.2978 206Z" fill="#D9D9D9"/>
</mask>
<g mask="url(#mask0_604_123)">
<mask id="path-3-inside-1_604_123" fill="white">
<path d="M296.497 248.548C288.742 265.041 276.628 279.102 261.462 289.21L206 206L296.497 248.548Z"/>
</mask>
<path d="M296.497 248.548C288.742 265.041 276.628 279.102 261.462 289.21L206 206L296.497 248.548Z" stroke="white" stroke-width="4" mask="url(#path-3-inside-1_604_123)"/>
</g>
</g>
<mask id="mask1_604_123" style="mask-type:alpha" maskUnits="userSpaceOnUse" x="412" y="16" width="380" height="380">
<path d="M792 206C792 310.934 706.934 396 602 396C497.066 396 412 310.934 412 206C412 101.066 497.066 16 602 16C706.934 16 792 101.066 792 206ZM482.298 206C482.298 272.11 535.89 325.702 602 325.702C668.11 325.702 721.702 272.11 721.702 206C721.702 139.89 668.11 86.2978 602 86.2978C535.89 86.2978 482.298 139.89 482.298 206Z" fill="#D9D9D9"/>
</mask>
<g mask="url(#mask1_604_123)">
<g opacity="0.5">
<mask id="path-5-inside-2_604_123" fill="white">
<path d="M746.795 274.076C734.388 300.466 715.005 322.963 690.74 339.136L602 206L746.795 274.076Z"/>
</mask>
<path d="M746.795 274.076C734.388 300.466 715.005 322.963 690.74 339.136L602 206L746.795 274.076Z" stroke="white" stroke-width="2" mask="url(#path-5-inside-2_604_123)"/>
</g>
</g>
</svg>
